<?xml version="1.0" encoding="UTF-8" standalone="no"?>
<svg
   xmlns:dc="http://purl.org/dc/elements/1.1/"
   xmlns:cc="http://creativecommons.org/ns#"
   xmlns:rdf="http://www.w3.org/1999/02/22-rdf-syntax-ns#"
   xmlns:svg="http://www.w3.org/2000/svg"
   xmlns="http://www.w3.org/2000/svg"
   version="1.1"
   id="svg2"
   viewBox="0 0 211 81.000002"
   height="22.860001mm"
   width="59.548889mm">
  <title
     id="title4456">Logo atomenabled.org</title>
  <defs
     id="defs4" />
  <metadata
     id="metadata7">
    <rdf:RDF>
      <cc:Work
         rdf:about="">
        <dc:format>image/svg+xml</dc:format>
        <dc:type
           rdf:resource="http://purl.org/dc/dcmitype/StillImage" />
        <dc:title>Logo atomenabled.org</dc:title>
        <dc:date>2015-09-30</dc:date>
        <dc:creator>
          <cc:Agent>
            <dc:title />
          </cc:Agent>
        </dc:creator>
        <dc:publisher>
          <cc:Agent>
            <dc:title />
          </cc:Agent>
        </dc:publisher>
        <dc:source>http://atomenabled.org/wp-content/uploads/2013/12/logo.png</dc:source>
        <dc:contributor>
          <cc:Agent>
            <dc:title>Marcus Rohrmoser</dc:title>
          </cc:Agent>
        </dc:contributor>
        <dc:language>en</dc:language>
        <dc:subject>
          <rdf:Bag>
            <rdf:li>logo</rdf:li>
          </rdf:Bag>
        </dc:subject>
      </cc:Work>
    </rdf:RDF>
  </metadata>
  <g
     style="display:inline"
     id="graphics">
    <ellipse
       ry="30.75"
       rx="4.25"
       cy="41.802284"
       cx="40.304184"
       id="ellipse4415"
       style="display:inline;fill:none;fill-opacity:1;stroke:#83a2c0;stroke-width:1.50000012;stroke-linecap:square;stroke-linejoin:round;stroke-miterlimit:4;stroke-dasharray:none;stroke-dashoffset:0;stroke-opacity:1" />
    <ellipse
       ry="30.75"
       rx="4.25"
       cy="-18.669771"
       cx="-54.984531"
       id="ellipse4423"
       style="display:inline;fill:none;fill-opacity:1;stroke:#83a2c0;stroke-width:1.50000012;stroke-linecap:square;stroke-linejoin:round;stroke-miterlimit:4;stroke-dasharray:none;stroke-dashoffset:0;stroke-opacity:1"
       transform="matrix(-0.42577929,-0.90482705,-0.90482705,0.42577929,0,0)" />
    <ellipse
       transform="matrix(0.42577929,-0.90482705,0.90482705,0.42577929,0,0)"
       style="display:inline;fill:none;fill-opacity:1;stroke:#d6ce79;stroke-width:1.50000012;stroke-linecap:square;stroke-linejoin:round;stroke-miterlimit:4;stroke-dasharray:none;stroke-dashoffset:0;stroke-opacity:1"
       id="ellipse4417"
       cx="-20.663153"
       cy="54.266869"
       rx="4.25"
       ry="30.75" />
    <circle
       r="31.5"
       cy="41.802284"
       cx="40.304184"
       id="path3436"
       style="display:inline;fill:none;fill-opacity:1;stroke:#646b41;stroke-width:1.99999976;stroke-linecap:square;stroke-linejoin:round;stroke-miterlimit:4;stroke-dasharray:none;stroke-dashoffset:0;stroke-opacity:1" />
    <circle
       r="6.875"
       cy="54.636608"
       cx="12.059816"
       id="circle4383"
       style="display:inline;fill:#ffffff;fill-opacity:1;stroke:none;stroke-width:2;stroke-linecap:square;stroke-linejoin:round;stroke-miterlimit:4;stroke-dasharray:none;stroke-dashoffset:0;stroke-opacity:1" />
    <circle
       style="display:inline;fill:#6e8c9b;fill-opacity:1;stroke:none;stroke-width:2;stroke-linecap:square;stroke-linejoin:round;stroke-miterlimit:4;stroke-dasharray:none;stroke-dashoffset:0;stroke-opacity:1"
       id="circle4250"
       cx="12.059816"
       cy="54.636608"
       r="5.25" />
    <circle
       style="display:inline;fill:#ffffff;fill-opacity:1;stroke:none;stroke-width:2;stroke-linecap:square;stroke-linejoin:round;stroke-miterlimit:4;stroke-dasharray:none;stroke-dashoffset:0;stroke-opacity:1"
       id="circle4381"
       cx="40.22575"
       cy="10.227743"
       r="6.875" />
    <circle
       r="5.25"
       cy="10.227743"
       cx="40.22575"
       id="path4248"
       style="display:inline;fill:#6e8c9b;fill-opacity:1;stroke:none;stroke-width:2;stroke-linecap:square;stroke-linejoin:round;stroke-miterlimit:4;stroke-dasharray:none;stroke-dashoffset:0;stroke-opacity:1" />
    <circle
       style="display:inline;fill:#ffffff;fill-opacity:1;stroke:none;stroke-width:2;stroke-linecap:square;stroke-linejoin:round;stroke-miterlimit:4;stroke-dasharray:none;stroke-dashoffset:0;stroke-opacity:1"
       id="circle4385"
       cx="69.428467"
       cy="54.291016"
       r="6.875" />
    <circle
       r="5.25"
       cy="54.291016"
       cx="69.428467"
       id="circle4252"
       style="display:inline;fill:#6e8c9b;fill-opacity:1;stroke:none;stroke-width:2;stroke-linecap:square;stroke-linejoin:round;stroke-miterlimit:4;stroke-dasharray:none;stroke-dashoffset:0;stroke-opacity:1" />
    <circle
       r="10.375"
       cy="41.802284"
       cx="40.304184"
       id="circle4387"
       style="display:inline;fill:#ffffff;fill-opacity:1;stroke:none;stroke-width:2;stroke-linecap:square;stroke-linejoin:round;stroke-miterlimit:4;stroke-dasharray:none;stroke-dashoffset:0;stroke-opacity:1" />
    <circle
       transform="matrix(0.99987663,0.01570732,-0.01570732,0.99987663,0,0)"
       style="display:inline;fill:#83a4c0;fill-opacity:1;stroke:none;stroke-width:2;stroke-linecap:round;stroke-linejoin:round;stroke-miterlimit:4;stroke-dasharray:none;stroke-dashoffset:0;stroke-opacity:1"
       id="circle4254"
       cx="40.955814"
       cy="41.164055"
       r="8.5331459" />
  </g>
  <g
     id="text1"
     style="display:inline;opacity:0.75">
    <g
       id="text4429"
       style="font-style:normal;font-variant:normal;font-weight:bold;font-stretch:normal;font-size:21.25px;line-height:100%;font-family:'Times New Roman';-inkscape-font-specification:'Times New Roman, Bold';text-align:start;letter-spacing:0px;word-spacing:0px;writing-mode:lr-tb;text-anchor:start;fill:#000000;fill-opacity:1;stroke:none;stroke-width:1px;stroke-linecap:butt;stroke-linejoin:miter;stroke-opacity:1">
      <path
         id="path4434"
         d="m 88.674316,36.70435 -4.970092,0 -0.591431,1.369628 q -0.290527,0.684815 -0.290527,1.130982 0,0.591431 0.477295,0.871582 0.280151,0.166016 1.380004,0.249023 l 0,0.383911 -4.679565,0 0,-0.383911 q 0.757446,-0.114135 1.245117,-0.622558 0.487671,-0.518799 1.203613,-2.127075 l 5.032349,-11.226807 0.197144,0 5.073852,11.538086 q 0.726319,1.639404 1.193237,2.064819 0.352784,0.321655 0.996094,0.373535 l 0,0.383911 -6.80664,0 0,-0.383911 0.280151,0 q 0.819702,0 1.151733,-0.228271 0.228272,-0.166016 0.228272,-0.477295 0,-0.186768 -0.06226,-0.383911 -0.02075,-0.09338 -0.311279,-0.778198 l -0.747071,-1.75354 z m -0.352783,-0.767823 -2.095947,-4.845581 -2.158203,4.845581 4.25415,0 z" />
      <path
         id="path4436"
         d="m 99.755859,27.459354 0,3.548584 2.303471,0 0,1.027222 -2.303471,0 0,5.986939 q 0,0.840454 0.07263,1.089477 0.08301,0.238648 0.280151,0.394287 0.19715,0.145264 0.36316,0.145264 0.67444,0 1.27625,-1.027222 l 0.31128,0.228272 q -0.84046,1.992187 -2.728888,1.992187 -0.923462,0 -1.566772,-0.508423 -0.632935,-0.518799 -0.809326,-1.151733 -0.10376,-0.352783 -0.10376,-1.90918 l 0,-5.239868 -1.265869,0 0,-0.363159 q 1.307373,-0.923462 2.220459,-1.940308 0.923462,-1.016845 1.608276,-2.272339 l 0.342407,0 z" />
      <path
         id="path4438"
         d="m 107.53784,30.717411 q 1.26587,0 2.35535,0.653687 1.08948,0.653686 1.64978,1.857299 0.57068,1.203614 0.57068,2.635498 0,2.06482 -1.04798,3.455201 -1.26587,1.680908 -3.4967,1.680908 -2.18933,0 -3.37219,-1.535645 -1.18286,-1.535644 -1.18286,-3.55896 0,-2.085571 1.20361,-3.631591 1.21399,-1.556397 3.32031,-1.556397 z m 0.0415,0.736694 q -0.52918,0 -0.91309,0.404663 -0.37354,0.394288 -0.49805,1.577149 -0.11413,1.172485 -0.11413,3.268433 0,1.110229 0.14526,2.075195 0.11414,0.736694 0.48767,1.120605 0.37354,0.383911 0.85083,0.383911 0.46692,0 0.7782,-0.259399 0.40466,-0.352783 0.53955,-0.985718 0.20752,-0.985718 0.20752,-3.984375 0,-1.763916 -0.19714,-2.417602 -0.19715,-0.664063 -0.58106,-0.964966 -0.26977,-0.217896 -0.70556,-0.217896 z" />
      <path
         id="path4440"
         d="m 117.57141,31.007938 0,1.276246 q 0.79895,-0.871583 1.47339,-1.21399 0.68481,-0.352783 1.49414,-0.352783 0.93384,0 1.56677,0.435791 0.63294,0.435791 0.97534,1.328125 0.83008,-0.933838 1.58753,-1.348877 0.76782,-0.415039 1.5979,-0.415039 1.00647,0 1.5979,0.466919 0.60181,0.456543 0.83008,1.172485 0.23865,0.705567 0.23865,2.261963 l 0,3.973999 q 0,1.120606 0.19714,1.390381 0.20752,0.269776 0.85083,0.352783 l 0,0.373535 -5.0116,0 0,-0.373535 q 0.59143,-0.05188 0.87158,-0.456543 0.18677,-0.280151 0.18677,-1.286621 l 0,-4.171142 q 0,-1.296997 -0.10376,-1.649781 -0.10376,-0.352783 -0.33203,-0.518798 -0.21789,-0.176392 -0.5188,-0.176392 -0.44616,0 -0.90271,0.332031 -0.45654,0.321655 -0.92346,0.975342 l 0,5.20874 q 0,1.047974 0.17639,1.317749 0.23865,0.383911 0.91309,0.425415 l 0,0.373535 -5.02197,0 0,-0.373535 q 0.40466,-0.02075 0.63293,-0.197143 0.23865,-0.186768 0.31128,-0.435791 0.083,-0.2594 0.083,-1.11023 l 0,-4.171142 q 0,-1.317749 -0.10376,-1.649781 -0.10376,-0.332031 -0.35279,-0.518798 -0.23864,-0.186768 -0.51879,-0.186768 -0.41504,0 -0.75745,0.217896 -0.48767,0.321655 -1.0376,1.099853 l 0,5.20874 q 0,1.027222 0.19714,1.359253 0.20752,0.321655 0.85083,0.383911 l 0,0.373535 -5.00122,0 0,-0.373535 q 0.61219,-0.06226 0.87159,-0.394287 0.17639,-0.228271 0.17639,-1.348877 l 0,-5.478515 q 0,-1.099854 -0.20752,-1.369629 -0.19715,-0.269776 -0.84046,-0.352783 l 0,-0.383912 3.95325,0 z" />
      <path
         id="path4442"
         d="m 136.30005,27.448978 0,5.727539 0.28015,0 q 1.3385,0 1.94031,-0.840454 0.6018,-0.840454 0.76782,-2.479858 l 0.39429,0 0,7.366943 -0.39429,0 q -0.12451,-1.203613 -0.52917,-1.971435 -0.39429,-0.767822 -0.92347,-1.027222 -0.52917,-0.269775 -1.53564,-0.269775 l 0,3.963623 q 0,1.162109 0.0934,1.421509 0.10376,0.259399 0.37354,0.425415 0.26977,0.166015 0.87158,0.166015 l 0.84045,0 q 1.97144,0 3.1543,-0.913086 1.19324,-0.913086 1.71204,-2.780761 l 0.38391,0 -0.63294,4.472045 -12.16064,0 0,-0.383911 0.46692,0 q 0.61218,0 0.98572,-0.217895 0.26977,-0.145264 0.41503,-0.498047 0.11414,-0.249023 0.11414,-1.307373 l 0,-9.255371 q 0,-0.95459 -0.0519,-1.172486 -0.10376,-0.363159 -0.38391,-0.560302 -0.39429,-0.290528 -1.0791,-0.290528 l -0.46692,0 0,-0.383911 11.77673,0 0,4.160767 -0.39428,0 q -0.30091,-1.525269 -0.85083,-2.189331 -0.53956,-0.664063 -1.53565,-0.975342 -0.58105,-0.186768 -2.17895,-0.186768 l -1.45264,0 z" />
      <path
         id="path4444"
         d="m 149.38416,31.007938 0,1.255494 q 0.74707,-0.809327 1.43188,-1.172486 0.68481,-0.373535 1.47339,-0.373535 0.94421,0 1.56677,0.529175 0.62256,0.518799 0.83008,1.296997 0.16601,0.591431 0.16601,2.272339 l 0,3.776855 q 0,1.120606 0.19715,1.400757 0.20752,0.269775 0.85083,0.342407 l 0,0.373535 -4.90784,0 0,-0.373535 q 0.54993,-0.07263 0.78858,-0.456543 0.16601,-0.259399 0.16601,-1.286621 l 0,-4.316406 q 0,-1.193237 -0.0934,-1.504517 -0.0934,-0.311279 -0.32166,-0.477295 -0.21789,-0.176391 -0.48767,-0.176391 -0.89233,0 -1.66015,1.276245 l 0,5.198364 q 0,1.089478 0.19714,1.380005 0.20752,0.290527 0.75745,0.363159 l 0,0.373535 -4.90784,0 0,-0.373535 q 0.61218,-0.06226 0.87158,-0.394287 0.17639,-0.228271 0.17639,-1.348877 l 0,-5.478515 q 0,-1.099854 -0.20752,-1.369629 -0.19714,-0.269776 -0.84045,-0.352783 l 0,-0.383912 3.95325,0 z" />
      <path
         id="path4446"
         d="m 162.56165,39.277592 q -1.7743,1.566772 -3.18543,1.566772 -0.83008,0 -1.38,-0.539551 -0.54993,-0.549926 -0.54993,-1.369629 0,-1.110229 0.95459,-1.992187 0.95459,-0.892334 4.16077,-2.365723 l 0,-0.975341 q 0,-1.099854 -0.12452,-1.380005 -0.11413,-0.290528 -0.44616,-0.498047 -0.33203,-0.217896 -0.74707,-0.217896 -0.67444,0 -1.11023,0.300904 -0.26978,0.186767 -0.26978,0.435791 0,0.217895 0.29053,0.53955 0.39429,0.446167 0.39429,0.861206 0,0.508423 -0.38392,0.871582 -0.37353,0.352784 -0.98571,0.352784 -0.65369,0 -1.09986,-0.394287 -0.43579,-0.394288 -0.43579,-0.923462 0,-0.747071 0.59143,-1.421509 0.59143,-0.684815 1.64978,-1.047974 1.05835,-0.363159 2.19971,-0.363159 1.38001,0 2.17896,0.591431 0.80932,0.581054 1.04797,1.265869 0.14526,0.435791 0.14526,2.002563 l 0,3.76648 q 0,0.664062 0.0519,0.840454 0.0519,0.166016 0.15564,0.249023 0.10376,0.08301 0.23865,0.08301 0.26978,0 0.54993,-0.383911 l 0.31128,0.249023 q -0.5188,0.767823 -1.07911,1.120606 -0.54992,0.342407 -1.25549,0.342407 -0.83008,0 -1.297,-0.383911 -0.46691,-0.394287 -0.57067,-1.182861 z m 0,-0.757447 0,-3.24768 q -1.2555,0.736694 -1.86768,1.577148 -0.40466,0.560303 -0.40466,1.130982 0,0.477295 0.3424,0.840454 0.2594,0.280151 0.72632,0.280151 0.5188,0 1.20362,-0.581055 z" />
      <path
         id="path4448"
         d="m 171.58875,26.639652 0,5.343628 q 1.22436,-1.265869 2.677,-1.265869 0.99609,0 1.87805,0.591431 0.88196,0.581054 1.38,1.660156 0.49805,1.079102 0.49805,2.490234 0,1.587525 -0.63293,2.884522 -0.63294,1.296997 -1.69129,1.981811 -1.05835,0.674439 -2.4176,0.674439 -0.78857,0 -1.40076,-0.249024 -0.61218,-0.249023 -1.20361,-0.809326 l -1.60828,1.047974 -0.35278,0 0,-12.337036 q 0,-0.840454 -0.0726,-1.037598 -0.10376,-0.290527 -0.33203,-0.425415 -0.2179,-0.145264 -0.74707,-0.166016 l 0,-0.383911 4.02588,0 z m 0,6.26709 0,4.316406 q 0,1.317749 0.0623,1.680909 0.10376,0.612182 0.49805,0.996093 0.39428,0.373535 1.00647,0.373535 0.52917,0 0.90271,-0.300903 0.38391,-0.300903 0.63293,-1.193237 0.2594,-0.892334 0.2594,-3.216553 0,-2.230835 -0.5603,-3.060913 -0.40466,-0.601807 -1.08948,-0.601807 -0.89233,0 -1.71203,1.00647 z" />
      <path
         id="path4450"
         d="m 183.41736,26.639652 0,12.056885 q 0,1.027222 0.23865,1.317749 0.23864,0.280151 0.93383,0.321655 l 0,0.373535 -5.23986,0 0,-0.373535 q 0.64331,-0.02075 0.95459,-0.373535 0.20751,-0.238647 0.20751,-1.265869 l 0,-10.043945 q 0,-1.016846 -0.23864,-1.296997 -0.23865,-0.290528 -0.92346,-0.332032 l 0,-0.383911 4.06738,0 z" />
      <path
         id="path4452"
         d="m 193.73108,35.511112 -5.32288,0 q 0.0934,1.929932 1.02722,3.050537 0.71595,0.861206 1.72242,0.861206 0.62256,0 1.13098,-0.342407 0.50842,-0.352783 1.08948,-1.255493 l 0.35278,0.228271 q -0.78858,1.608277 -1.74316,2.282715 -0.95459,0.664063 -2.21009,0.664063 -2.1582,0 -3.26843,-1.660156 -0.89233,-1.338501 -0.89233,-3.320313 0,-2.427978 1.30737,-3.859863 1.31775,-1.442261 3.08166,-1.442261 1.47339,0 2.55249,1.213989 1.08948,1.203614 1.17249,3.579712 z m -2.55249,-0.69519 q 0,-1.670532 -0.18677,-2.293091 -0.17639,-0.622559 -0.5603,-0.944214 -0.2179,-0.186767 -0.58106,-0.186767 -0.53955,0 -0.88195,0.529174 -0.61219,0.923462 -0.61219,2.531739 l 0,0.363159 2.82227,0 z" />
      <path
         id="path4454"
         d="m 204.40796,26.639652 0,11.164551 q 0,1.130981 0.0623,1.338501 0.083,0.342407 0.31128,0.508423 0.23865,0.166015 0.81971,0.207519 l 0,0.342408 -4.09851,0.79895 0,-1.535645 q -0.7367,0.892334 -1.31775,1.21399 -0.57068,0.321655 -1.297,0.321655 -1.8573,0 -2.9364,-1.660156 -0.87158,-1.348877 -0.87158,-3.309937 0,-1.566772 0.53955,-2.801514 0.53955,-1.245117 1.47339,-1.878051 0.94421,-0.632935 2.02331,-0.632935 0.69519,0 1.23474,0.269775 0.53955,0.269776 1.15174,0.944214 l 0,-2.926025 q 0,-1.11023 -0.0934,-1.338501 -0.12451,-0.300903 -0.37353,-0.446167 -0.24903,-0.145264 -0.93384,-0.145264 l 0,-0.435791 4.30603,0 z m -2.90527,6.578369 q -0.76783,-1.473388 -1.87806,-1.473388 -0.38391,0 -0.63293,0.207519 -0.38391,0.321656 -0.63294,1.130982 -0.23864,0.809326 -0.23864,2.479858 0,1.836548 0.26977,2.718506 0.26978,0.881958 0.7367,1.276245 0.23864,0.197144 0.65368,0.197144 0.91309,0 1.72242,-1.431885 l 0,-5.104981 z" />
    </g>
  </g>
</svg>
